<svg width="63" height="63" viewBox="0 0 63 63" fill="none" xmlns="http://www.w3.org/2000/svg">
<path d="M0 4C0 1.79086 1.79086 0 4 0H59C61.2091 0 63 1.79086 63 4V59C63 61.2091 61.2091 63 59 63H4C1.79086 63 0 61.2091 0 59V4Z" fill="black"/>
<path d="M13.5987 19.708V19.2676L14.4449 19.1467L14.5486 18.076L15.5329 17.9378V19.1467H16.6382V19.708H15.5329V22.5316C15.5329 22.7273 15.5358 22.8626 15.5416 22.9374C15.5473 23.0065 15.5589 23.0641 15.5761 23.1101C15.5934 23.1447 15.6251 23.1706 15.6711 23.1878C15.7172 23.2051 15.792 23.2137 15.8956 23.2137H16.5001V23.5937C16.1662 23.6973 15.8697 23.7721 15.6107 23.8182C15.3574 23.87 15.1559 23.8959 15.0062 23.8959C14.7472 23.8959 14.5802 23.7894 14.5054 23.5764C14.4824 23.5073 14.4651 23.4181 14.4536 23.3087C14.4421 23.1993 14.4363 23.0382 14.4363 22.8252V19.708H13.5987Z" fill="white"/>
<path d="M21.519 21.4781C21.519 21.8465 21.4643 22.1948 21.3549 22.5229C21.2513 22.8453 21.0987 23.1159 20.8973 23.3346C20.7073 23.5361 20.477 23.68 20.2065 23.7664C19.9417 23.8527 19.6308 23.8959 19.2739 23.8959C18.917 23.8959 18.6032 23.8527 18.3327 23.7664C18.0679 23.68 17.8405 23.5361 17.6505 23.3346C17.449 23.1159 17.2936 22.8453 17.1842 22.5229C17.0806 22.1948 17.0288 21.8465 17.0288 21.4781C17.0288 21.1097 17.0806 20.7614 17.1842 20.4333C17.2936 20.1052 17.449 19.8346 17.6505 19.6216C17.8405 19.4201 18.0679 19.2762 18.3327 19.1899C18.6032 19.1035 18.917 19.0603 19.2739 19.0603C19.6308 19.0603 19.9417 19.1035 20.2065 19.1899C20.477 19.2762 20.7073 19.4201 20.8973 19.6216C21.0987 19.8346 21.2513 20.1052 21.3549 20.4333C21.4643 20.7614 21.519 21.1097 21.519 21.4781ZM18.4881 22.972C18.5687 23.0871 18.6723 23.1734 18.799 23.231C18.9314 23.2886 19.0897 23.3174 19.2739 23.3174C19.4581 23.3174 19.6164 23.2886 19.7488 23.231C19.8812 23.1734 19.9848 23.0871 20.0597 22.972C20.2439 22.6899 20.336 22.1919 20.336 21.4781C20.336 21.1155 20.313 20.8104 20.2669 20.5628C20.2209 20.3153 20.1518 20.1224 20.0597 19.9843C19.9848 19.8691 19.8812 19.7828 19.7488 19.7252C19.6164 19.6677 19.4581 19.6389 19.2739 19.6389C19.0897 19.6389 18.9314 19.6677 18.799 19.7252C18.6723 19.7828 18.5687 19.8691 18.4881 19.9843C18.3039 20.2664 18.2118 20.7643 18.2118 21.4781C18.2118 22.1919 18.3039 22.6899 18.4881 22.972Z" fill="white"/>
<path d="M26.3955 23.8614C26.3955 24.391 26.2056 24.7795 25.8256 25.0271C25.4457 25.2746 24.8413 25.3984 24.0123 25.3984C23.6439 25.3984 23.3071 25.3638 23.002 25.2948C22.7027 25.2257 22.4638 25.1105 22.2853 24.9494C22.1069 24.7939 22.0176 24.5809 22.0176 24.3104C22.0176 24.0456 22.1011 23.8326 22.268 23.6714C22.435 23.5102 22.6825 23.4239 23.0107 23.4123V23.3778C22.5731 23.2569 22.3544 23.0382 22.3544 22.7215C22.3544 22.6064 22.3832 22.4855 22.4407 22.3589C22.4983 22.2322 22.5933 22.12 22.7257 22.0221C22.8581 21.9243 23.0308 21.8609 23.2438 21.8322C22.9387 21.7573 22.6998 21.6048 22.5271 21.3745C22.3544 21.1385 22.268 20.8622 22.268 20.5455C22.268 20.085 22.4235 19.7224 22.7343 19.4575C23.0452 19.1927 23.4913 19.0603 24.0727 19.0603C24.4584 19.0603 24.7607 19.0949 24.9794 19.164C25.1982 19.2273 25.391 19.3251 25.558 19.4575L25.8515 19.3539L26.646 18.974H26.7927V19.8634H26.646L26.0415 19.7943H25.8256C25.9408 19.9728 25.9983 20.2059 25.9983 20.4937C25.9983 20.9658 25.8515 21.34 25.558 21.6163C25.2644 21.8868 24.8413 22.0221 24.2886 22.0221C24.2311 22.0221 24.1735 22.0221 24.1159 22.0221C24.0584 22.0164 24.0008 22.0106 23.9432 22.0049C23.7187 22.0336 23.5374 22.0854 23.3992 22.1603C23.2668 22.2294 23.2006 22.3301 23.2006 22.4625C23.2006 22.5661 23.2553 22.6381 23.3647 22.6784C23.4741 22.7129 23.6727 22.7302 23.9605 22.7302H24.9621C25.4342 22.7302 25.7911 22.8252 26.0329 23.0151C26.2747 23.1993 26.3955 23.4814 26.3955 23.8614ZM24.3232 23.5246H24.0209C23.6352 23.5246 23.356 23.585 23.1834 23.7059C23.0107 23.8268 22.9243 23.9851 22.9243 24.1809C22.9243 24.6184 23.3359 24.8371 24.1591 24.8371C24.6024 24.8371 24.9391 24.7709 25.1694 24.6385C25.3996 24.5119 25.5148 24.3248 25.5148 24.0772C25.5148 23.8758 25.4256 23.7347 25.2471 23.6541C25.0686 23.5678 24.7607 23.5246 24.3232 23.5246ZM23.287 20.511C23.287 20.8334 23.356 21.0809 23.4942 21.2536C23.6381 21.4206 23.8367 21.504 24.09 21.504C24.3951 21.504 24.6196 21.4206 24.7635 21.2536C24.9075 21.0809 24.9794 20.8334 24.9794 20.511C24.9794 20.2059 24.9075 19.9756 24.7635 19.8202C24.6196 19.6648 24.3951 19.5871 24.09 19.5871C23.831 19.5871 23.6324 19.6648 23.4942 19.8202C23.356 19.9756 23.287 20.2059 23.287 20.511Z" fill="white"/>
<path d="M31.276 21.599H28.2624C28.2624 21.9905 28.3199 22.3157 28.4351 22.5748C28.5272 22.7705 28.6509 22.923 28.8064 23.0324C28.9618 23.136 29.1546 23.1878 29.3849 23.1878C29.6382 23.1878 29.8886 23.1303 30.1361 23.0151C30.3894 22.9 30.6053 22.7273 30.7838 22.497L31.2501 22.8597C31.0486 23.1475 30.7751 23.3922 30.4297 23.5937C30.0901 23.7952 29.6699 23.8959 29.169 23.8959C28.7488 23.8959 28.3861 23.8124 28.081 23.6455C27.7759 23.4728 27.5428 23.2224 27.3816 22.8942C27.2953 22.7158 27.2319 22.5172 27.1916 22.2984C27.1513 22.0797 27.1312 21.8437 27.1312 21.5904C27.1312 20.7844 27.3154 20.1627 27.6838 19.7252C28.058 19.282 28.5847 19.0603 29.264 19.0603C29.8915 19.0603 30.3866 19.2446 30.7492 19.613C31.1177 19.9756 31.3019 20.4793 31.3019 21.1241C31.3019 21.1874 31.299 21.2507 31.2932 21.3141C31.2932 21.3716 31.2875 21.4666 31.276 21.599ZM29.2468 19.6562C28.6538 19.6562 28.3286 20.1196 28.271 21.0464H30.1707V20.8219C30.1707 20.4477 30.0872 20.1599 29.9203 19.9584C29.7591 19.7569 29.5346 19.6562 29.2468 19.6562Z" fill="white"/>
<path d="M31.6444 19.708V19.2676L32.4906 19.1467L32.5942 18.076L33.5786 17.9378V19.1467H34.6838V19.708H33.5786V22.5316C33.5786 22.7273 33.5815 22.8626 33.5872 22.9374C33.593 23.0065 33.6045 23.0641 33.6218 23.1101C33.639 23.1447 33.6707 23.1706 33.7167 23.1878C33.7628 23.2051 33.8376 23.2137 33.9412 23.2137H34.5457V23.5937C34.2118 23.6973 33.9153 23.7721 33.6563 23.8182C33.403 23.87 33.2015 23.8959 33.0519 23.8959C32.7928 23.8959 32.6259 23.7894 32.551 23.5764C32.528 23.5073 32.5107 23.4181 32.4992 23.3087C32.4877 23.1993 32.4819 23.0382 32.4819 22.8252V19.708H31.6444Z" fill="white"/>
<path d="M38.5716 23.1619V21.4954C38.5716 21.1212 38.5601 20.8449 38.537 20.6664C38.5198 20.4822 38.4852 20.3354 38.4334 20.2261C38.2953 19.944 38.042 19.8029 37.6736 19.8029C37.5124 19.8029 37.3569 19.8432 37.2073 19.9238C37.0576 20.0044 36.9396 20.1196 36.8532 20.2692C36.8072 20.3441 36.7669 20.4506 36.7323 20.5887C36.6978 20.7211 36.6805 20.8852 36.6805 21.0809V23.1619L37.2591 23.326V23.8095H34.919V23.326L35.5839 23.1619V17.7219L34.919 17.5579V17.0743H36.6805V19.9584C36.8302 19.6821 37.0259 19.4633 37.2677 19.3021C37.5152 19.1409 37.7858 19.0603 38.0794 19.0603C38.3269 19.0603 38.5342 19.092 38.7011 19.1553C38.8738 19.2129 39.0235 19.3079 39.1501 19.4403C39.3286 19.6245 39.4581 19.872 39.5387 20.1829C39.625 20.488 39.6682 20.8881 39.6682 21.3831V23.1619L40.3331 23.326V23.8095H37.993V23.326L38.5716 23.1619Z" fill="white"/>
<path d="M44.9114 21.599H41.8978C41.8978 21.9905 41.9554 22.3157 42.0705 22.5748C42.1626 22.7705 42.2864 22.923 42.4418 23.0324C42.5972 23.136 42.7901 23.1878 43.0203 23.1878C43.2736 23.1878 43.524 23.1303 43.7716 23.0151C44.0249 22.9 44.2407 22.7273 44.4192 22.497L44.8855 22.8597C44.684 23.1475 44.4105 23.3922 44.0652 23.5937C43.7255 23.7952 43.3053 23.8959 42.8045 23.8959C42.3842 23.8959 42.0216 23.8124 41.7165 23.6455C41.4114 23.4728 41.1782 23.2224 41.017 22.8942C40.9307 22.7158 40.8674 22.5172 40.8271 22.2984C40.7868 22.0797 40.7666 21.8437 40.7666 21.5904C40.7666 20.7844 40.9508 20.1627 41.3192 19.7252C41.6934 19.282 42.2202 19.0603 42.8994 19.0603C43.5269 19.0603 44.022 19.2446 44.3846 19.613C44.7531 19.9756 44.9373 20.4793 44.9373 21.1241C44.9373 21.1874 44.9344 21.2507 44.9286 21.3141C44.9286 21.3716 44.9229 21.4666 44.9114 21.599ZM42.8822 19.6562C42.2892 19.6562 41.964 20.1196 41.9064 21.0464H43.8061V20.8219C43.8061 20.4477 43.7226 20.1599 43.5557 19.9584C43.3945 19.7569 43.17 19.6562 42.8822 19.6562Z" fill="white"/>
<path d="M48.0861 19.777C48.0228 19.777 47.9508 19.8173 47.8703 19.8979C47.7897 19.9728 47.7148 20.062 47.6457 20.1656C47.5824 20.2692 47.5364 20.3613 47.5076 20.4419C47.4385 20.6377 47.3781 20.8391 47.3262 21.0464C47.2744 21.2536 47.2485 21.5069 47.2485 21.8062V23.1619L48.1811 23.326V23.8095H45.487V23.326L46.1519 23.1619V19.6648L45.487 19.5007V19.1467H46.9895L47.1795 20.2865H47.214C47.3464 19.8951 47.5249 19.5928 47.7494 19.3798C47.9739 19.1668 48.2214 19.0603 48.492 19.0603C48.7165 19.0603 48.9036 19.1323 49.0532 19.2762C49.2029 19.4144 49.2777 19.6015 49.2777 19.8375C49.2777 20.0102 49.2259 20.1685 49.1223 20.3124C49.0187 20.4506 48.8719 20.5196 48.6819 20.5196C48.4517 20.5196 48.2876 20.4678 48.1897 20.3642C48.0919 20.2548 48.0429 20.1368 48.0429 20.0102C48.0429 19.9699 48.0429 19.9411 48.0429 19.9238C48.0487 19.9008 48.0631 19.8519 48.0861 19.777Z" fill="white"/>
<path d="M15.2221 29.5172L15.9561 32.2286L16.0424 32.7381H16.0856L16.1806 32.2286L17.0786 28.7746H17.9594L18.8833 32.22L18.9696 32.7294H19.0042L19.1078 32.22L19.8072 29.5172L19.246 29.3532V28.8696H21.1456V29.3532L20.6794 29.5172L19.4359 33.6102H18.2875L17.3895 30.493L16.5173 33.6102H15.3689L14.0823 29.5172L13.6246 29.3532V28.8696H15.8179V29.3532L15.2221 29.5172Z" fill="white"/>
<path d="M22.1533 29.5086L21.4884 29.3445V28.861H23.2499V32.8762L23.9148 33.0403V33.5238H21.4884V33.0403L22.1533 32.8762V29.5086ZM22.0583 27.5485C22.0583 27.3643 22.113 27.2146 22.2224 27.0995C22.3375 26.9843 22.4958 26.9268 22.6973 26.9268C22.8988 26.9268 23.0571 26.9843 23.1722 27.0995C23.2874 27.2146 23.3449 27.3643 23.3449 27.5485C23.3449 27.7269 23.2874 27.8737 23.1722 27.9888C23.0628 28.104 22.9045 28.1615 22.6973 28.1615C22.4901 28.1615 22.3318 28.1069 22.2224 27.9975C22.113 27.8824 22.0583 27.7327 22.0583 27.5485Z" fill="white"/>
<path d="M24.1225 29.4222V28.9819L24.9688 28.861L25.0724 27.7902L26.0568 27.6521V28.861H27.162V29.4222H26.0568V32.2459C26.0568 32.4416 26.0596 32.5769 26.0654 32.6517C26.0711 32.7208 26.0827 32.7784 26.0999 32.8244C26.1172 32.8589 26.1489 32.8849 26.1949 32.9021C26.241 32.9194 26.3158 32.928 26.4194 32.928H27.0239V33.308C26.69 33.4116 26.3935 33.4864 26.1345 33.5325C25.8812 33.5843 25.6797 33.6102 25.53 33.6102C25.271 33.6102 25.104 33.5037 25.0292 33.2907C25.0062 33.2216 24.9889 33.1324 24.9774 33.023C24.9659 32.9136 24.9601 32.7524 24.9601 32.5395V29.4222H24.1225Z" fill="white"/>
<path d="M31.0498 32.8762V31.2097C31.0498 30.8355 31.0382 30.5592 31.0152 30.3807C30.998 30.1965 30.9634 30.0497 30.9116 29.9403C30.7734 29.6583 30.5202 29.5172 30.1517 29.5172C29.9905 29.5172 29.8351 29.5575 29.6854 29.6381C29.5358 29.7187 29.4178 29.8338 29.3314 29.9835C29.2854 30.0584 29.2451 30.1649 29.2105 30.303C29.176 30.4354 29.1587 30.5995 29.1587 30.7952V32.8762L29.7373 33.0403V33.5238H27.3972V33.0403L28.0621 32.8762V27.4362L27.3972 27.2722V26.7886H29.1587V29.6727C29.3084 29.3963 29.5041 29.1776 29.7459 29.0164C29.9934 28.8552 30.264 28.7746 30.5576 28.7746C30.8051 28.7746 31.0123 28.8063 31.1793 28.8696C31.352 28.9272 31.5017 29.0222 31.6283 29.1546C31.8068 29.3388 31.9363 29.5863 32.0169 29.8972C32.1032 30.2023 32.1464 30.6024 32.1464 31.0974V32.8762L32.8113 33.0403V33.5238H30.4712V33.0403L31.0498 32.8762Z" fill="white"/>
<path d="M33.3052 33.0748C33.3052 32.8561 33.3657 32.6862 33.4866 32.5654C33.6075 32.4387 33.7715 32.3754 33.9788 32.3754C34.186 32.3754 34.3501 32.4387 34.4709 32.5654C34.5976 32.692 34.6609 32.8589 34.6609 33.0662C34.6609 33.2734 34.6005 33.4375 34.4796 33.5584C34.3587 33.6793 34.1889 33.7397 33.9701 33.7397C33.7629 33.7397 33.5988 33.6821 33.4779 33.567C33.3628 33.4519 33.3052 33.2878 33.3052 33.0748Z" fill="white"/>
<path d="M16.146 38.4889C16.5029 38.4889 16.8195 38.5465 17.0959 38.6616C17.3722 38.771 17.5881 38.9264 17.7435 39.1279C17.9047 39.3294 17.9853 39.5654 17.9853 39.836C17.9853 40.095 17.9162 40.2936 17.778 40.4318C17.6399 40.5642 17.47 40.6304 17.2686 40.6304C17.0441 40.6304 16.8858 40.5613 16.7936 40.4231C16.7073 40.285 16.6641 40.1439 16.6641 40C16.6641 39.8561 16.6987 39.7323 16.7677 39.6287C16.8426 39.5193 16.952 39.4445 17.0959 39.4042C17.021 39.3006 16.9001 39.2171 16.7332 39.1538C16.572 39.0905 16.3907 39.0588 16.1892 39.0588C15.8265 39.0588 15.5445 39.1912 15.343 39.456C15.1415 39.7208 15.0408 40.1958 15.0408 40.8808C15.0408 41.1916 15.0609 41.4363 15.1012 41.6148C15.1415 41.7932 15.1962 41.9486 15.2653 42.081C15.3574 42.248 15.4754 42.3804 15.6193 42.4782C15.7632 42.5704 15.9474 42.6164 16.1719 42.6164C16.408 42.6164 16.6555 42.5617 16.9145 42.4523C17.1793 42.3372 17.3981 42.1616 17.5708 41.9256L18.0371 42.2883C17.7723 42.6567 17.4614 42.9215 17.1045 43.0827C16.7476 43.2439 16.3677 43.3245 15.9647 43.3245C15.5387 43.3245 15.176 43.2439 14.8767 43.0827C14.5831 42.9158 14.3528 42.674 14.1859 42.3574C13.9787 41.9717 13.875 41.5025 13.875 40.9499C13.875 40.449 13.9643 40.0144 14.1427 39.646C14.3269 39.2776 14.5889 38.9926 14.9285 38.7911C15.2681 38.5897 15.674 38.4889 16.146 38.4889Z" fill="white"/>
<path d="M23.079 40.9067C23.079 41.2751 23.0243 41.6234 22.9149 41.9515C22.8113 42.2739 22.6588 42.5445 22.4573 42.7632C22.2673 42.9647 22.037 43.1086 21.7665 43.1949C21.5017 43.2813 21.1908 43.3245 20.8339 43.3245C20.477 43.3245 20.1633 43.2813 19.8927 43.1949C19.6279 43.1086 19.4005 42.9647 19.2105 42.7632C19.0091 42.5445 18.8536 42.2739 18.7443 41.9515C18.6406 41.6234 18.5888 41.2751 18.5888 40.9067C18.5888 40.5383 18.6406 40.19 18.7443 39.8619C18.8536 39.5337 19.0091 39.2632 19.2105 39.0502C19.4005 38.8487 19.6279 38.7048 19.8927 38.6184C20.1633 38.5321 20.477 38.4889 20.8339 38.4889C21.1908 38.4889 21.5017 38.5321 21.7665 38.6184C22.037 38.7048 22.2673 38.8487 22.4573 39.0502C22.6588 39.2632 22.8113 39.5337 22.9149 39.8619C23.0243 40.19 23.079 40.5383 23.079 40.9067ZM20.0481 42.4005C20.1287 42.5157 20.2323 42.602 20.359 42.6596C20.4914 42.7171 20.6497 42.7459 20.8339 42.7459C21.0181 42.7459 21.1764 42.7171 21.3088 42.6596C21.4412 42.602 21.5449 42.5157 21.6197 42.4005C21.8039 42.1185 21.896 41.6205 21.896 40.9067C21.896 40.544 21.873 40.2389 21.8269 39.9914C21.7809 39.7439 21.7118 39.551 21.6197 39.4128C21.5449 39.2977 21.4412 39.2114 21.3088 39.1538C21.1764 39.0962 21.0181 39.0675 20.8339 39.0675C20.6497 39.0675 20.4914 39.0962 20.359 39.1538C20.2323 39.2114 20.1287 39.2977 20.0481 39.4128C19.8639 39.6949 19.7718 40.1929 19.7718 40.9067C19.7718 41.6205 19.8639 42.1185 20.0481 42.4005Z" fill="white"/>
<path d="M23.5172 39.1365V38.6962L24.3548 38.5753V38.4889C24.3548 37.9075 24.5102 37.4614 24.8211 37.1505C25.1319 36.8339 25.5666 36.6756 26.125 36.6756C26.3955 36.6756 26.6459 36.7101 26.8762 36.7792C27.1122 36.8483 27.2964 36.9404 27.4288 37.0555C27.7109 36.6295 28.1225 36.4165 28.6636 36.4165C29.0839 36.4165 29.4177 36.5 29.6653 36.6669C29.9186 36.8281 30.0452 37.0354 30.0452 37.2887C30.0452 37.4901 29.9876 37.6456 29.8725 37.7549C29.7631 37.8586 29.6279 37.9104 29.4667 37.9104C29.2882 37.9104 29.1472 37.8643 29.0436 37.7722C28.9457 37.6801 28.8968 37.5592 28.8968 37.4095C28.8968 37.2599 28.9428 37.1332 29.0349 37.0296C28.9313 36.926 28.7989 36.8742 28.6377 36.8742C28.5744 36.8742 28.5082 36.8943 28.4391 36.9346C28.37 36.9692 28.3211 37.0123 28.2923 37.0642C28.2635 37.116 28.2376 37.1966 28.2146 37.3059C28.1973 37.4153 28.1829 37.542 28.1714 37.6859C28.1657 37.8298 28.1628 37.9823 28.1628 38.1435V38.5753H29.2681V39.1365H28.1628V42.5905L29.0954 42.7546V43.2381H26.574V42.7546L27.0662 42.5905V39.1365H25.4514V42.5905L26.0386 42.7546V43.2381H23.6899V42.7546L24.3548 42.5905V39.1365H23.5172ZM27.0662 38.5753V38.3767C27.0662 37.9334 27.0086 37.6168 26.8935 37.4268C26.7783 37.2311 26.5596 37.1332 26.2372 37.1332C25.9954 37.1332 25.8026 37.2196 25.6587 37.3923C25.5205 37.565 25.4514 37.8154 25.4514 38.1435V38.5753H27.0662Z" fill="white"/>
<path d="M33.8647 41.0276H30.8512C30.8512 41.419 30.9087 41.7443 31.0239 42.0033C31.116 42.1991 31.2397 42.3516 31.3952 42.461C31.5506 42.5646 31.7434 42.6164 31.9737 42.6164C32.227 42.6164 32.4774 42.5588 32.7249 42.4437C32.9782 42.3286 33.1941 42.1559 33.3726 41.9256L33.8388 42.2883C33.6374 42.5761 33.3639 42.8208 33.0185 43.0222C32.6789 43.2237 32.2587 43.3245 31.7578 43.3245C31.3376 43.3245 30.9749 43.241 30.6698 43.0741C30.3647 42.9014 30.1316 42.6509 29.9704 42.3228C29.884 42.1444 29.8207 41.9458 29.7804 41.727C29.7401 41.5083 29.72 41.2722 29.72 41.0189C29.72 40.213 29.9042 39.5913 30.2726 39.1538C30.6468 38.7105 31.1735 38.4889 31.8528 38.4889C32.4803 38.4889 32.9753 38.6731 33.338 39.0415C33.7064 39.4042 33.8907 39.9079 33.8907 40.5527C33.8907 40.616 33.8878 40.6793 33.882 40.7426C33.882 40.8002 33.8763 40.8952 33.8647 41.0276ZM31.8355 39.0847C31.2426 39.0847 30.9174 39.5481 30.8598 40.4749H32.7595V40.2504C32.7595 39.8763 32.676 39.5884 32.5091 39.3869C32.3479 39.1855 32.1234 39.0847 31.8355 39.0847Z" fill="white"/>
<path d="M38.6629 41.0276H35.6493C35.6493 41.419 35.7068 41.7443 35.822 42.0033C35.9141 42.1991 36.0378 42.3516 36.1933 42.461C36.3487 42.5646 36.5415 42.6164 36.7718 42.6164C37.0251 42.6164 37.2755 42.5588 37.5231 42.4437C37.7763 42.3286 37.9922 42.1559 38.1707 41.9256L38.637 42.2883C38.4355 42.5761 38.162 42.8208 37.8166 43.0222C37.477 43.2237 37.0568 43.3245 36.5559 43.3245C36.1357 43.3245 35.773 43.241 35.4679 43.0741C35.1628 42.9014 34.9297 42.6509 34.7685 42.3228C34.6822 42.1444 34.6188 41.9458 34.5785 41.727C34.5382 41.5083 34.5181 41.2722 34.5181 41.0189C34.5181 40.213 34.7023 39.5913 35.0707 39.1538C35.4449 38.7105 35.9716 38.4889 36.6509 38.4889C37.2784 38.4889 37.7735 38.6731 38.1361 39.0415C38.5046 39.4042 38.6888 39.9079 38.6888 40.5527C38.6888 40.616 38.6859 40.6793 38.6801 40.7426C38.6801 40.8002 38.6744 40.8952 38.6629 41.0276ZM36.6337 39.0847C36.0407 39.0847 35.7155 39.5481 35.6579 40.4749H37.5576V40.2504C37.5576 39.8763 37.4741 39.5884 37.3072 39.3869C37.146 39.1855 36.9215 39.0847 36.6337 39.0847Z" fill="white"/>
<path d="M7.33122 25.9683V6M6 7.33121L25.9683 7.33122" stroke="white"/>
<path d="M55.3989 37.0317V57M56.7302 55.6688L36.7619 55.6688" stroke="white"/>
<path d="M25.9683 55.3989H6M7.33122 56.7302V36.7619" stroke="white"/>
<path d="M36.7619 7.60105L56.7302 7.60105M55.3989 6.26984L55.3989 26.2381" stroke="white"/>
</svg>
