<svg width="16" height="16" viewBox="0 0 16 16" fill="none" xmlns="http://www.w3.org/2000/svg">
<g clip-path="url(#clip0_17_25)">
<path d="M0.151386 15.1295L4.28233 11.0646C3.20057 9.8893 2.5359 8.33495 2.5359 6.62455C2.53642 2.96568 5.55012 0 9.268 0C12.9859 0 15.9996 2.96568 15.9996 6.62455C15.9996 10.2834 12.9859 13.2491 9.268 13.2491C7.66162 13.2491 6.18828 12.6935 5.03099 11.7697L0.884027 15.8507C0.681966 16.0498 0.353919 16.0498 0.151857 15.8507C-0.0506744 15.6517 -0.0506763 15.3286 0.151386 15.1295ZM9.268 12.2299C12.4137 12.2299 14.9638 9.72029 14.9638 6.62455C14.9638 3.52881 12.4137 1.01923 9.268 1.01923C6.12224 1.01923 3.57217 3.52881 3.57217 6.62455C3.57217 9.72029 6.12224 12.2299 9.268 12.2299Z" fill="black"/>
</g>
<defs>
<clipPath id="clip0_17_25">
<rect width="16" height="16" fill="white" transform="matrix(-1 0 0 1 16 0)"/>
</clipPath>
</defs>
</svg>
